<?xml version="1.0" encoding="UTF-8" standalone="no"?>
<!-- Created with Inkscape (http://www.inkscape.org/) -->
<svg
   xmlns:dc="http://purl.org/dc/elements/1.1/"
   xmlns:cc="http://creativecommons.org/ns#"
   xmlns:rdf="http://www.w3.org/1999/02/22-rdf-syntax-ns#"
   xmlns:svg="http://www.w3.org/2000/svg"
   xmlns="http://www.w3.org/2000/svg"
   xmlns:sodipodi="http://sodipodi.sourceforge.net/DTD/sodipodi-0.dtd"
   xmlns:inkscape="http://www.inkscape.org/namespaces/inkscape"
   width="744.09448819"
   height="1052.3622047"
   id="svg2"
   sodipodi:version="0.32"
   inkscape:version="0.46"
   sodipodi:docname="turtle.svg"
   inkscape:output_extension="org.inkscape.output.svg.inkscape">
  <defs
     id="defs4">
    <inkscape:perspective
       sodipodi:type="inkscape:persp3d"
       inkscape:vp_x="0 : 526.18109 : 1"
       inkscape:vp_y="0 : 1000 : 0"
       inkscape:vp_z="744.09448 : 526.18109 : 1"
       inkscape:persp3d-origin="372.04724 : 350.78739 : 1"
       id="perspective10" />
  </defs>
  <sodipodi:namedview
     id="base"
     pagecolor="#ffffff"
     bordercolor="#666666"
     borderopacity="1.0"
     gridtolerance="10000"
     guidetolerance="10"
     objecttolerance="10"
     inkscape:pageopacity="0.0"
     inkscape:pageshadow="2"
     inkscape:zoom="0.35"
     inkscape:cx="507.78331"
     inkscape:cy="437.67311"
     inkscape:document-units="px"
     inkscape:current-layer="layer1"
     showgrid="false"
     inkscape:window-width="1192"
     inkscape:window-height="1024"
     inkscape:window-x="129"
     inkscape:window-y="25" />
  <metadata
     id="metadata7">
    <rdf:RDF>
      <cc:Work
         rdf:about="">
        <dc:format>image/svg+xml</dc:format>
        <dc:type
           rdf:resource="http://purl.org/dc/dcmitype/StillImage" />
      </cc:Work>
    </rdf:RDF>
  </metadata>
  <g
     inkscape:label="Layer 1"
     inkscape:groupmode="layer"
     id="layer1">
    <rect
       style="fill:#000000;fill-opacity:1"
       id="rect2383"
       width="1077.1428"
       height="1282.8572"
       x="-128.57143"
       y="-113.3521" />
    <path
       sodipodi:type="arc"
       style="fill:#ffffff;fill-opacity:1"
       id="path2387"
       sodipodi:cx="527.14288"
       sodipodi:cy="325.21933"
       sodipodi:rx="55.714287"
       sodipodi:ry="90"
       d="M 582.85717,325.21933 A 55.714287,90 0 1 1 471.4286,325.21933 A 55.714287,90 0 1 1 582.85717,325.21933 z"
       transform="matrix(1,0,0,0.7777778,-108.57143,26.556673)" />
    <rect
       style="fill:#ffffff;fill-opacity:1;stroke:#ffffff;stroke-width:0;stroke-linecap:round;stroke-linejoin:miter;stroke-miterlimit:10;stroke-dasharray:none;stroke-opacity:1"
       id="rect3161"
       width="77.14286"
       height="134.28572"
       x="-142.26715"
       y="392.12665"
       ry="37.142857"
       transform="matrix(0.7071068,-0.7071068,0.7071068,0.7071068,0,0)" />
    <rect
       style="fill:#ffffff;fill-opacity:1;stroke:#ffffff;stroke-width:0;stroke-linecap:round;stroke-linejoin:miter;stroke-miterlimit:10;stroke-dasharray:none;stroke-opacity:1"
       id="rect3159"
       width="77.14286"
       height="134.28572"
       x="-100.04282"
       y="818.61304"
       ry="37.142857"
       transform="matrix(0.7071068,-0.7071068,0.7071068,0.7071068,0,0)" />
    <rect
       style="fill:#ffffff;fill-opacity:1;stroke:#ffffff;stroke-width:0;stroke-linecap:round;stroke-linejoin:miter;stroke-miterlimit:10;stroke-dasharray:none;stroke-opacity:1"
       id="rect3163"
       width="77.14286"
       height="134.28572"
       x="655.05347"
       y="-197.80254"
       ry="37.142857"
       transform="matrix(0.7071068,0.7071068,-0.7071068,0.7071068,0,0)" />
    <rect
       style="fill:#ffffff;fill-opacity:1;stroke:#ffffff;stroke-width:0;stroke-linecap:round;stroke-linejoin:miter;stroke-miterlimit:10;stroke-dasharray:none;stroke-opacity:1"
       id="rect3165"
       width="77.14286"
       height="134.28572"
       x="612.82916"
       y="228.68391"
       ry="37.142857"
       transform="matrix(0.7071068,0.7071068,-0.7071068,0.7071068,0,0)" />
    <path
       style="fill:#ffffff;fill-opacity:1;stroke:#ffffff;stroke-width:0;stroke-linecap:round;stroke-linejoin:miter;stroke-miterlimit:10;stroke-dasharray:none;stroke-opacity:1"
       id="path3189"
       d="M 457.279,698.20587 C 452.33208,704.38001 448.89933,711.50586 445.2366,718.46347 C 441.99547,724.47066 439.67427,730.93616 435.80038,736.58401 C 423.14875,750.74469 405.16408,759.53584 387.7842,766.67704 C 500.54589,702.12517 298.91199,818.3666 412.84543,752.87055 L 373.60546,768.15722 C 471.45379,711.13981 381.62047,763.49043 378.09584,765.53095 C 377.32869,765.97508 379.62664,764.63138 380.34467,764.11159 C 381.06856,763.58755 381.64211,762.85791 382.41293,762.40571 C 395.09958,754.96306 407.92837,747.76537 420.68609,740.4452 C 435.00245,732.50638 414.15916,744.04652 389.15219,758.74092 C 388.47692,759.13772 390.61664,758.17084 391.30015,757.7884 C 393.84671,756.36349 392.83288,756.56183 395.08446,754.6473 C 395.73287,754.09596 396.4588,753.64287 397.14597,753.14065 C 401.79802,747.98854 404.32858,741.62443 407.36986,735.45056 C 411.13889,728.65797 414.19039,721.5171 418.3847,714.96688 L 457.279,698.20587 z" />
    <path
       sodipodi:type="arc"
       style="fill:#ffffff;fill-opacity:1;stroke:#000000;stroke-width:8;stroke-miterlimit:4;stroke-dasharray:none"
       id="path2385"
       sodipodi:cx="604.28571"
       sodipodi:cy="595.2193"
       sodipodi:rx="170"
       sodipodi:ry="211.42857"
       d="M 774.28571,595.2193 A 170,211.42857 0 1 1 434.28571,595.2193 A 170,211.42857 0 1 1 774.28571,595.2193 z"
       transform="translate(-185.71429,-77.142857)" />
  </g>
</svg>
