<?xml version="1.0" encoding="UTF-8" standalone="no"?>
<!-- Created with Inkscape (http://www.inkscape.org/) -->
<svg
   xmlns:svg="http://www.w3.org/2000/svg"
   xmlns="http://www.w3.org/2000/svg"
   xmlns:inkscape="http://www.inkscape.org/namespaces/inkscape"
   version="1.0"
   width="264"
   height="62"
   id="svg2440">
  <defs
     id="defs2443">
    <marker
       refX="0"
       refY="0"
       orient="auto"
       id="Arrow2Send"
       style="overflow:visible">
      <path
         d="M 8.7185878,4.0337352 L -2.2072895,0.016013256 L 8.7185884,-4.0017078 C 6.97309,-1.6296469 6.9831476,1.6157441 8.7185878,4.0337352 z"
         transform="matrix(-0.3,0,0,-0.3,0.69,0)"
         id="path4067"
         style="font-size:12px;fill-rule:evenodd;stroke-width:0.625;stroke-linejoin:round" />
    </marker>
    <marker
       refX="0"
       refY="0"
       orient="auto"
       id="Arrow2Mend"
       style="overflow:visible">
      <path
         d="M 8.7185878,4.0337352 L -2.2072895,0.016013256 L 8.7185884,-4.0017078 C 6.97309,-1.6296469 6.9831476,1.6157441 8.7185878,4.0337352 z"
         transform="scale(-0.6,-0.6)"
         id="path4061"
         style="font-size:12px;fill-rule:evenodd;stroke-width:0.625;stroke-linejoin:round" />
    </marker>
    <marker
       refX="0"
       refY="0"
       orient="auto"
       id="Arrow1Mend"
       style="overflow:visible">
      <path
         d="M 0,0 L 5,-5 L -12.5,0 L 5,5 L 0,0 z"
         transform="matrix(-0.4,0,0,-0.4,-4,0)"
         id="path4043"
         style="fill-rule:evenodd;stroke:#000000;stroke-width:1pt;marker-start:none" />
    </marker>
    <marker
       refX="0"
       refY="0"
       orient="auto"
       id="Arrow1Lend"
       style="overflow:visible">
      <path
         d="M 0,0 L 5,-5 L -12.5,0 L 5,5 L 0,0 z"
         transform="matrix(-0.8,0,0,-0.8,-10,0)"
         id="path4037"
         style="fill-rule:evenodd;stroke:#000000;stroke-width:1pt;marker-start:none" />
    </marker>
  </defs>
  <g
     id="g3265"
     style="fill:#ffeeaa">
    <path
       d="M 3.316583,3.7939699 L 3.316583,58.18593 L 52.733669,58.18593 L 52.733669,13.080402 L 44.110552,4.2914573 L 3.316583,3.7939699 z"
       id="path2451"
       style="fill:#ffeeaa;fill-rule:evenodd;stroke:#edab24;stroke-width:1px;stroke-linecap:butt;stroke-linejoin:miter;stroke-opacity:1" />
    <path
       d="M 44.608039,4.7889447 L 44.608039,13.080402 L 52.23618,13.080402 L 44.608039,4.7889447 z"
       id="path2463"
       style="fill:#ffeeaa;fill-rule:evenodd;stroke:#ecbc2a;stroke-width:0.5;stroke-linecap:butt;stroke-linejoin:miter;stroke-miterlimit:4;stroke-dasharray:none;stroke-opacity:1" />
  </g>
  <text
     x="7.9597983"
     y="27.175879"
     id="text3269"
     xml:space="preserve"
     style="font-size:12px;font-style:normal;font-weight:normal;fill:#000000;fill-opacity:1;stroke:none;stroke-width:1px;stroke-linecap:butt;stroke-linejoin:miter;stroke-opacity:1;font-family:Bitstream Vera Sans"><tspan
       x="7.9597983"
       y="27.175879"
       id="tspan3271">Source</tspan><tspan
       x="7.9597983"
       y="42.17588"
       id="tspan3273">Code</tspan></text>
  <g
     transform="translate(-4.9379861,2.3514211)"
     id="g6984">
    <path
       d="M 92.129081,5.7112397 L 91.631594,50.816767 L 169.40546,51.314255 L 168.90797,5.0479231 L 92.129081,5.7112397 z"
       id="path2453"
       style="fill:#ccffaa;fill-rule:evenodd;stroke:#21360e;stroke-width:1;stroke-linecap:butt;stroke-linejoin:miter;stroke-miterlimit:4;stroke-dasharray:none;stroke-opacity:1" />
    <path
       d="M 85.661744,17.71124 L 85.661744,39.434858 L 92.129081,33.962496 L 91.631594,23.681089 L 85.661744,17.71124 z"
       id="path2459"
       style="fill:#ccffaa;fill-rule:evenodd;stroke:#21360e;stroke-width:1px;stroke-linecap:butt;stroke-linejoin:miter;stroke-opacity:1" />
    <path
       d="M 169.40546,21.902195 L 174.87782,16.595662 L 174.87782,38.816767 L 169.40546,33.344406 L 169.40546,21.902195 z"
       id="path2461"
       style="fill:#ccffaa;fill-rule:evenodd;stroke:#21360e;stroke-width:1px;stroke-linecap:butt;stroke-linejoin:miter;stroke-opacity:1" />
    <text
       x="98.430588"
       y="31.248926"
       id="text3275"
       xml:space="preserve"
       style="font-size:12px;font-style:normal;font-weight:normal;fill:#000000;fill-opacity:1;stroke:none;stroke-width:1px;stroke-linecap:butt;stroke-linejoin:miter;stroke-opacity:1;font-family:Bitstream Vera Sans"><tspan
         x="98.430588"
         y="31.248926"
         id="tspan3277">Interpreter</tspan></text>
  </g>
  <g
     transform="translate(0.2351421,-0.7054265)"
     id="g7520">
    <path
       d="M 200.15578,2.1356784 L 200.15578,52.713568 L 261.67839,52.21608 L 261.67839,2.6331658 L 200.15578,2.1356784 z"
       id="path2457"
       style="fill:#e6e6e6;fill-rule:evenodd;stroke:#000000;stroke-width:1px;stroke-linecap:butt;stroke-linejoin:miter;stroke-opacity:1" />
    <path
       d="M 203.96985,5.9497488 L 203.47236,49.065327 L 259.02513,49.065327 L 258.52764,5.9497488 L 203.96985,5.9497488 z"
       id="path2455"
       style="fill:#ffffff;fill-rule:evenodd;stroke:#000000;stroke-width:1px;stroke-linecap:butt;stroke-linejoin:miter;stroke-opacity:1" />
    <path
       d="M 217.56784,52.713568 L 217.56784,56.030151 L 244.92965,56.030151 L 244.26633,52.21608 L 217.56784,52.713568 z"
       id="path2465"
       style="fill:#999999;fill-rule:evenodd;stroke:#000000;stroke-width:1px;stroke-linecap:butt;stroke-linejoin:miter;stroke-opacity:1" />
    <path
       d="M 211.59799,56.527638 L 211.59799,59.346734 L 251.39698,59.844221 L 251.39698,56.030151 L 211.59799,56.527638 z"
       id="path2467"
       style="fill:#999999;fill-rule:evenodd;stroke:#000000;stroke-width:1px;stroke-linecap:butt;stroke-linejoin:miter;stroke-opacity:1" />
    <text
       x="210.10553"
       y="30.824121"
       id="text3279"
       xml:space="preserve"
       style="font-size:12px;font-style:normal;font-weight:normal;fill:#000000;fill-opacity:1;stroke:none;stroke-width:1px;stroke-linecap:butt;stroke-linejoin:miter;stroke-opacity:1;font-family:Bitstream Vera Sans"><tspan
         x="210.10553"
         y="30.824121"
         id="tspan3281">Output</tspan></text>
  </g>
  <path
     d="M 53.233669,30.871444 L 80.223758,30.744564"
     inkscape:connection-start="#g3265"
     inkscape:connection-end="#g6984"
     id="path6991"
     style="fill:none;fill-rule:evenodd;stroke:#000000;stroke-width:1px;stroke-linecap:butt;stroke-linejoin:miter;marker-end:url(#Arrow2Mend);stroke-opacity:1" />
  <path
     d="M 170.43983,30.426801 L 199.89092,30.357783"
     inkscape:connection-start="#g6984"
     inkscape:connection-end="#g7520"
     id="path7530"
     style="fill:none;fill-rule:evenodd;stroke:#000000;stroke-width:1px;stroke-linecap:butt;stroke-linejoin:miter;marker-end:url(#Arrow2Mend);stroke-opacity:1" />
</svg>
