<?xml version="1.0" encoding="UTF-8" standalone="no"?>
<!-- Created with Inkscape (http://www.inkscape.org/) -->

<svg
   xmlns:dc="http://purl.org/dc/elements/1.1/"
   xmlns:cc="http://creativecommons.org/ns#"
   xmlns:rdf="http://www.w3.org/1999/02/22-rdf-syntax-ns#"
   xmlns:svg="http://www.w3.org/2000/svg"
   xmlns="http://www.w3.org/2000/svg"
   xmlns:xlink="http://www.w3.org/1999/xlink"
   xmlns:sodipodi="http://sodipodi.sourceforge.net/DTD/sodipodi-0.dtd"
   xmlns:inkscape="http://www.inkscape.org/namespaces/inkscape"
   width="300"
   height="300"
   id="svg2"
   version="1.1"
   inkscape:version="0.48.0 r9654"
   sodipodi:docname="elkner_book.svg"
   inkscape:export-filename="/home/dmitchell/Pictures/Test/thinkcspy.png"
   inkscape:export-xdpi="45.409798"
   inkscape:export-ydpi="45.409798">
  <defs
     id="defs4">
    <linearGradient
       id="linearGradient3971">
      <stop
         style="stop-color:#000000;stop-opacity:1;"
         offset="0"
         id="stop3973" />
      <stop
         style="stop-color:#fef608;stop-opacity:1;"
         offset="1"
         id="stop3975" />
    </linearGradient>
    <radialGradient
       inkscape:collect="always"
       xlink:href="#linearGradient3971"
       id="radialGradient3969"
       cx="388.3642"
       cy="73.157158"
       fx="388.3642"
       fy="73.157158"
       r="128.65974"
       gradientTransform="matrix(-0.999941,2.2161505e-8,-1.3877645e-6,-1.008849,545.4564,236.61352)"
       gradientUnits="userSpaceOnUse" />
    <filter
       id="filter4099"
       inkscape:label="Bloom"
       inkscape:menu="Bevels"
       inkscape:menu-tooltip="Soft, cushion-like bevel with matte highlights"
       color-interpolation-filters="sRGB">
      <feGaussianBlur
         id="feGaussianBlur4101"
         result="result1"
         in="SourceAlpha"
         stdDeviation="2.2" />
      <feSpecularLighting
         id="feSpecularLighting4103"
         result="result0"
         specularExponent="18.1"
         specularConstant="2"
         surfaceScale="5">
        <feDistantLight
           id="feDistantLight4105"
           azimuth="225"
           elevation="24" />
      </feSpecularLighting>
      <feComposite
         id="feComposite4107"
         in2="SourceAlpha"
         result="result6"
         operator="in" />
      <feMorphology
         id="feMorphology4109"
         radius="5.7"
         operator="dilate" />
      <feGaussianBlur
         id="feGaussianBlur4111"
         result="result11"
         stdDeviation="5.7" />
      <feDiffuseLighting
         id="feDiffuseLighting4113"
         surfaceScale="5"
         result="result3"
         diffuseConstant="2"
         in="result1">
        <feDistantLight
           id="feDistantLight4115"
           elevation="25"
           azimuth="225" />
      </feDiffuseLighting>
      <feBlend
         id="feBlend4117"
         in2="SourceGraphic"
         result="result7"
         mode="multiply"
         in="result3" />
      <feComposite
         id="feComposite4119"
         in2="SourceAlpha"
         in="result7"
         operator="in"
         result="result91" />
      <feBlend
         id="feBlend4121"
         in2="result91"
         result="result9"
         mode="lighten"
         in="result6" />
      <feComposite
         id="feComposite4123"
         in2="result9"
         in="result11" />
    </filter>
    <path
       style="fill:none;stroke:none"
       d="m -57,-6.9999987 c 0,0 0,-54.9999993 123,-53.9999993 123,1 209,1 209,1"
       id="path4038-6"
       inkscape:connector-curvature="0" />
    <path
       style="fill:none;stroke:none"
       d="m -57,-6.9999987 c 0,0 0,-54.9999993 123,-53.9999993 123,1 209,1 209,1"
       id="path4038-6-4"
       inkscape:connector-curvature="0" />
    <path
       style="fill:none;stroke:none"
       d="m -57,-6.9999987 c 0,0 0,-54.9999993 123,-53.9999993 123,1 209,1 209,1"
       id="path4038-6-5"
       inkscape:connector-curvature="0" />
    <path
       style="fill:none;stroke:none"
       d="m -57,-6.9999987 c 0,0 0,-54.9999993 123,-53.9999993 123,1 209,1 209,1"
       id="path4038-6-9"
       inkscape:connector-curvature="0" />
    <path
       style="fill:none;stroke:none"
       d="m -57,-6.9999987 c 0,0 0,-54.9999993 123,-53.9999993 123,1 209,1 209,1"
       id="path4038-6-9-4"
       inkscape:connector-curvature="0" />
    <path
       style="fill:none;stroke:none"
       d="m -57,-6.9999987 c 0,0 0,-54.9999993 123,-53.9999993 123,1 209,1 209,1"
       id="path4038-6-9-8"
       inkscape:connector-curvature="0" />
    <path
       style="fill:none;stroke:none"
       d="m -57,-6.9999987 c 0,0 0,-54.9999993 123,-53.9999993 123,1 209,1 209,1"
       id="path4038-6-9-8-9"
       inkscape:connector-curvature="0" />
    <filter
       id="filter3583"
       inkscape:label="Cubes"
       inkscape:menu="Scatter"
       inkscape:menu-tooltip="Scattered cubes; adjust the Morphology primitive to vary size"
       color-interpolation-filters="sRGB">
      <feTurbulence
         id="feTurbulence3585"
         baseFrequency="0.14299516908212559"
         numOctaves="1"
         type="fractalNoise" />
      <feColorMatrix
         id="feColorMatrix3587"
         values="1 0 0 0 0 0 1 0 0 0 0 0 1 0 0 0 0 0 6 -3.5 "
         result="result5" />
      <feComposite
         id="feComposite3589"
         in2="result5"
         operator="in"
         in="SourceGraphic"
         result="result6" />
      <feMorphology
         id="feMorphology3591"
         result="result3"
         radius="5"
         operator="dilate"
         in="result6" />
      <feDisplacementMap
         id="feDisplacementMap3593"
         in2="result3"
         result="result4"
         scale="0"
         yChannelSelector="A"
         xChannelSelector="R"
         in="result3" />
      <feComposite
         id="feComposite3595"
         in2="result4"
         operator="arithmetic"
         result="result2"
         k1="1"
         k3="1" />
      <feBlend
         id="feBlend3597"
         in2="result2"
         mode="darken"
         in="result2" />
      <feConvolveMatrix
         id="feConvolveMatrix3599"
         order="3 3"
         kernelMatrix="2 0 0 0 1 0 0 0 -1 "
         targetX="1"
         targetY="1"
         divisor="2"
         edgeMode="duplicate" />
    </filter>
  </defs>
  <sodipodi:namedview
     id="base"
     pagecolor="#ffffff"
     bordercolor="#666666"
     borderopacity="1.0"
     inkscape:pageopacity="0.0"
     inkscape:pageshadow="2"
     inkscape:zoom="1"
     inkscape:cx="85.67504"
     inkscape:cy="138.11837"
     inkscape:document-units="px"
     inkscape:current-layer="layer9"
     showgrid="false"
     showguides="true"
     inkscape:guide-bbox="true"
     inkscape:window-width="1280"
     inkscape:window-height="947"
     inkscape:window-x="0"
     inkscape:window-y="24"
     inkscape:window-maximized="1" />
  <metadata
     id="metadata7">
    <rdf:RDF>
      <cc:Work
         rdf:about="">
        <dc:format>image/svg+xml</dc:format>
        <dc:type
           rdf:resource="http://purl.org/dc/dcmitype/StillImage" />
        <dc:title></dc:title>
      </cc:Work>
    </rdf:RDF>
  </metadata>
  <g
     inkscape:groupmode="layer"
     id="layer4"
     inkscape:label="Layer#2">
    <path
       sodipodi:type="arc"
       style="fill:url(#radialGradient3969);fill-opacity:1;stroke:none;filter:url(#filter3583)"
       id="path3961"
       sodipodi:cx="154.55334"
       sodipodi:cy="159.67809"
       sodipodi:rx="126.65974"
       sodipodi:ry="127.79825"
       d="m 281.21308,159.67809 a 126.65974,127.79825 0 1 1 -253.319472,0 126.65974,127.79825 0 1 1 253.319472,0 z"
       transform="matrix(1.1086387,0,0,1.1086387,-23.327975,-26.515815)" />
  </g>
  <g
     inkscape:groupmode="layer"
     id="layer2"
     inkscape:label="Layer" />
  <g
     inkscape:groupmode="layer"
     id="layer3"
     inkscape:label="Layer#1">
    <path
       style="fill:#ffcd00;fill-opacity:1;stroke:#000000;stroke-width:4;stroke-linecap:butt;stroke-linejoin:miter;stroke-opacity:1"
       d="m 174.77717,68.59693 66.88773,94.78133 0.28462,16.79309 -63.47218,14.23143 -6.83108,11.66978 -81.688418,34.72469 -35.863205,-103.32019 35.00932,-21.34715 29.032123,-9.962 z"
       id="path3152"
       inkscape:connector-curvature="0" />
    <path
       style="fill:#ffffff;fill-opacity:1;stroke:none"
       d="m 61.779609,135.76929 24.478061,79.12675 29.60138,7.11572 c 0,0 16.22383,-28.46286 44.97132,-23.33955 L 125.82105,114.9914"
       id="path3924"
       inkscape:connector-curvature="0" />
    <path
       style="fill:#ffffff;fill-opacity:1;stroke:none"
       d="m 127.24419,113.28363 38.42486,86.5271 c 0,0 3.70018,-21.63178 25.90121,-27.89361 l 45.25595,-4.26943 -62.6183,-93.642816 c 0,0 -7.40034,0.853886 -14.23143,7.115715"
       id="path3926"
       inkscape:connector-curvature="0" />
    <path
       style="fill:#ffffff;stroke:#ff9955;stroke-width:1px;stroke-linecap:butt;stroke-linejoin:miter;stroke-opacity:1"
       d="m 174.20791,72.866363 c 0,0 -5.12331,3.415544 -19.63937,3.130915 -14.51606,-0.284629 -29.60138,10.24663 -31.59378,24.478062 -1.9924,14.23143 5.9772,13.9468 5.9772,13.9468"
       id="path3958"
       inkscape:connector-curvature="0" />
  </g>
  <g
     inkscape:label="Layer 1"
     inkscape:groupmode="layer"
     id="layer1"
     transform="translate(0,-752.36218)">
    <path
       style="fill:#008000;fill-opacity:1;stroke:#000000;stroke-width:4.13175488;stroke-linecap:butt;stroke-linejoin:miter;stroke-opacity:1"
       d="m 88.476095,895.85908 c 0,0 5.902505,-9.40713 18.260885,-6.08696 12.35837,3.32015 -2.76681,49.06459 -2.76681,49.06459 0,0 -6.2714,21.02767 6.08696,27.11464 12.35838,6.08696 24.5323,-4.24243 24.5323,-4.24243 0,0 28.59026,-22.87221 49.24904,-10.88275 20.65877,11.98946 19.92096,20.10542 30.0659,24.71675 10.14492,4.61133 14.01844,3.13571 16.41634,3.13571 2.39789,0 13.28065,-4.98024 14.75627,-11.80501 0,0 -3.50461,18.62978 -12.72728,24.34783 -9.22266,5.71805 -27.48354,7.74705 -35.23058,-2.21343 -7.74704,-9.96049 -23.24112,-17.15417 -33.01716,-14.38736 -9.77603,2.7668 -20.10541,17.15415 -30.98816,20.28984 -10.88274,3.13569 -30.06589,11.805 -50.355758,-8.48483 -20.289867,-20.28987 -8.85376,-43.71544 -8.85376,-43.71544 0,0 9.40712,-9.96049 12.358373,-31.17262 2.951254,-21.21214 0.922267,-8.48484 2.21344,-15.67853 z"
       id="path3010"
       inkscape:connector-curvature="0" />
    <path
       style="fill:#008000;stroke:#000000;stroke-width:4;stroke-linecap:butt;stroke-linejoin:miter;stroke-opacity:1"
       d="m 120.07143,847.54075 c 0,0 14.82143,14.10714 -1.07143,36.25 -15.89286,22.14286 -40.892857,12.67857 -40.892857,12.67857 0,0 -35.535714,-14.10714 -14.107143,-47.5 0,0 12.132,-25.62298 29.107143,-15.99988 0,0 8.610397,2.77822 26.964287,14.57131 z"
       id="path3004"
       inkscape:connector-curvature="0"
       sodipodi:nodetypes="cscccc" />
    <path
       style="fill:#000000;stroke:#000000;stroke-width:1px;stroke-linecap:butt;stroke-linejoin:miter;stroke-opacity:1"
       d="m 79,875.21932 c 0,0 -0.178571,7.85715 5.714286,7.32143 C 86.321429,873.96932 79,875.21932 79,875.21932 z"
       id="path3014"
       inkscape:connector-curvature="0" />
    <path
       style="fill:#000000;stroke:#000000;stroke-width:1px;stroke-linecap:butt;stroke-linejoin:miter;stroke-opacity:1"
       d="m 100.54207,875.00901 c 0,0 -7.656437,1.77356 -5.677489,7.34999 8.702379,-0.5665 5.677489,-7.34999 5.677489,-7.34999 z"
       id="path3014-1"
       inkscape:connector-curvature="0" />
    <path
       sodipodi:type="arc"
       style="fill:#ffffff;fill-opacity:1;stroke:#000000;stroke-width:4;stroke-opacity:1"
       id="path3262"
       sodipodi:cx="78.842125"
       sodipodi:cy="81.262909"
       sodipodi:rx="12.523659"
       sodipodi:ry="13.23523"
       d="m 91.365784,81.262909 c 0,7.309616 -5.607033,13.23523 -12.523659,13.23523 -6.916626,0 -12.523659,-5.925614 -12.523659,-13.23523 0,-7.309616 5.607033,-13.235231 12.523659,-13.235231 6.916626,0 12.523659,5.925615 12.523659,13.235231 z"
       transform="matrix(1.1868227,0,0,1.1868227,-15.431689,736.61117)" />
    <path
       sodipodi:type="arc"
       style="fill:#000000;fill-opacity:1;stroke:none"
       id="path3091"
       sodipodi:cx="33.308998"
       sodipodi:cy="87.667717"
       sodipodi:rx="5.5347276"
       sodipodi:ry="6.0378847"
       d="m 38.843726,87.667717 c 0,3.334632 -2.477982,6.037885 -5.534728,6.037885 -3.056746,0 -5.534727,-2.703253 -5.534727,-6.037885 0,-3.334632 2.477981,-6.037885 5.534727,-6.037885 3.056746,0 5.534728,2.703253 5.534728,6.037885 z"
       transform="translate(47.057616,747.21941)" />
    <path
       sodipodi:type="arc"
       style="fill:#ffffff;fill-opacity:1;stroke:#000000;stroke-width:4;stroke-opacity:1"
       id="path3262-1"
       sodipodi:cx="78.842125"
       sodipodi:cy="81.262909"
       sodipodi:rx="12.523659"
       sodipodi:ry="13.23523"
       d="m 91.365784,81.262909 a 12.523659,13.23523 0 1 1 -25.047318,0 12.523659,13.23523 0 1 1 25.047318,0 z"
       transform="matrix(1.1868227,0,0,1.1868227,14.58725,737.892)" />
    <path
       sodipodi:type="arc"
       style="fill:#000000;fill-opacity:1;stroke:none"
       id="path3091-5"
       sodipodi:cx="33.308998"
       sodipodi:cy="87.667717"
       sodipodi:rx="5.5347276"
       sodipodi:ry="6.0378847"
       d="m 38.843726,87.667717 a 5.5347276,6.0378847 0 1 1 -11.069455,0 5.5347276,6.0378847 0 1 1 11.069455,0 z"
       transform="translate(74.841357,747.17809)" />
    <text
       xml:space="preserve"
       style="font-size:40px;font-style:normal;font-weight:normal;line-height:125%;letter-spacing:0px;word-spacing:0px;fill:#000000;fill-opacity:1;stroke:none;font-family:Sans"
       x="281.4285"
       y="50.037754"
       id="text3447"
       sodipodi:linespacing="125%"
       transform="translate(0,752.36218)"><tspan
         sodipodi:role="line"
         id="tspan3449" /></text>
  </g>
  <g
     inkscape:groupmode="layer"
     id="layer5"
     inkscape:label="How to">
    <path
       style="fill:none;stroke:none;stroke-width:1px;stroke-linecap:butt;stroke-linejoin:miter;stroke-opacity:1"
       d="m -57,-6.9999987 c 0,0 0,-54.9999993 123,-53.9999993 123,1 209,1 209,1"
       id="path4038"
       inkscape:connector-curvature="0" />
  </g>
  <g
     inkscape:groupmode="layer"
     id="layer6"
     inkscape:label="think like" />
  <g
     inkscape:groupmode="layer"
     id="layer7"
     inkscape:label="a" />
  <g
     inkscape:groupmode="layer"
     id="layer8"
     inkscape:label="computer" />
  <g
     inkscape:groupmode="layer"
     id="layer9"
     inkscape:label="scientist">
    <text
       xml:space="preserve"
       style="font-size:40px;font-style:normal;font-weight:normal;line-height:125%;letter-spacing:0px;word-spacing:0px;fill:#000000;fill-opacity:1;stroke:none;font-family:Sans"
       id="text4034"
       sodipodi:linespacing="125%"
       transform="matrix(0.31574762,0,0.01653412,0.31574762,157.72539,115.84267)"><textPath
         xlink:href="#path4038-6"
         id="textPath4040"
         style="font-weight:bold;-inkscape-font-specification:Sans Bold">How <tspan
   style="font-size:31.67086411px"
   id="tspan3374">to</tspan></textPath></text>
    <text
       xml:space="preserve"
       style="font-size:40px;font-style:normal;font-weight:normal;line-height:125%;letter-spacing:0px;word-spacing:0px;fill:#000000;fill-opacity:1;stroke:none;font-family:Sans"
       id="text4034-2"
       sodipodi:linespacing="125%"
       transform="matrix(0.31574762,0,0.01653412,0.31574762,163.87101,130.89027)"><textPath
         xlink:href="#path4038-6-9"
         id="textPath4040-4"
         style="font-size:31.67086411px;font-weight:bold;-inkscape-font-specification:Sans Bold">think like</textPath></text>
    <text
       xml:space="preserve"
       style="font-size:40px;font-style:normal;font-weight:normal;line-height:125%;letter-spacing:0px;word-spacing:0px;fill:#000000;fill-opacity:1;stroke:none;font-family:Sans"
       id="text4034-2-6"
       sodipodi:linespacing="125%"
       transform="matrix(0.31574762,0,0.01653412,0.31574762,173.47933,141.65194)"><textPath
         xlink:href="#path4038-6-9-4"
         id="textPath4040-4-6"
         style="font-size:31.67086411px;font-weight:bold;-inkscape-font-specification:Sans Bold">      a</textPath></text>
    <text
       xml:space="preserve"
       style="font-size:40px;font-style:normal;font-weight:normal;line-height:125%;letter-spacing:0px;word-spacing:0px;fill:#000000;fill-opacity:1;stroke:none;font-family:Sans"
       id="text4034-2-60"
       sodipodi:linespacing="125%"
       transform="matrix(0.31559697,-0.00975248,0.02627871,0.31508628,175.44046,154.78641)"><textPath
         xlink:href="#path4038-6-9-8"
         id="textPath4040-4-3"
         style="font-size:34.83795166px;font-weight:bold;-inkscape-font-specification:Sans Bold">computer</textPath></text>
    <text
       xml:space="preserve"
       style="font-size:40px;font-style:normal;font-weight:normal;line-height:125%;letter-spacing:0px;word-spacing:0px;fill:#000000;fill-opacity:1;stroke:none;font-family:Sans"
       id="text4034-2-60-4"
       sodipodi:linespacing="125%"
       transform="matrix(0.34767351,0,0.01820592,0.34767351,184.86425,172.64244)"><textPath
         xlink:href="#path4038-6-9-8-9"
         id="textPath4040-4-3-9"
         style="font-size:34.83795166px;font-weight:bold;-inkscape-font-specification:Sans Bold">scientist</textPath></text>
  </g>
</svg>
